<?xml version="1.0" standalone="no"?>
<!DOCTYPE svg PUBLIC "-//W3C//DTD SVG 20010904//EN"
 "http://www.w3.org/TR/2001/REC-SVG-20010904/DTD/svg10.dtd">
<svg version="1.0" xmlns="http://www.w3.org/2000/svg"
 width="700.000000pt" height="700.000000pt" viewBox="0 0 700.000000 700.000000"
 preserveAspectRatio="xMidYMid meet">
<metadata>
Created by potrace 1.11, written by Peter Selinger 2001-2013
</metadata>
<g transform="translate(0.000000,700.000000) scale(0.100000,-0.100000)"
fill="#000000" stroke="none">
<path d="M2055 6406 c-22 -6 -55 -19 -74 -30 -19 -10 -332 -316 -696 -680
-504 -504 -666 -672 -684 -709 -45 -92 -35 -213 24 -292 12 -16 284 -292 604
-611 319 -320 581 -585 581 -590 0 -4 -266 -274 -592 -600 -425 -426 -599
-607 -617 -641 -34 -64 -35 -175 -4 -245 17 -37 161 -187 692 -718 729 -728
707 -710 825 -715 133 -6 93 -39 766 632 333 331 609 603 614 603 5 0 274
-265 599 -590 325 -324 594 -590 598 -590 4 0 9 -5 11 -11 7 -20 115 -48 177
-45 115 6 100 -6 827 720 642 642 672 674 694 731 27 73 24 161 -9 229 -16 32
-186 208 -622 643 l-599 598 600 600 c666 666 644 640 643 770 0 55 -6 81 -26
121 -20 40 -176 202 -689 714 -710 711 -701 703 -813 714 -31 3 -73 -1 -109
-11 -73 -20 -37 13 -741 -692 l-540 -541 -600 600 c-580 579 -625 620 -695
637 -39 10 -109 9 -145 -1z m604 -1020 l523 -523 -524 -527 c-288 -289 -527
-526 -531 -526 -4 0 -245 236 -534 524 l-527 524 525 526 c288 289 529 525
534 526 6 0 246 -236 534 -524z m933 -1027 c48 -12 115 -64 150 -114 96 -142
38 -351 -119 -425 -198 -93 -428 66 -410 284 16 194 183 306 379 255z m-588
-583 c54 -17 125 -68 153 -111 132 -203 -21 -469 -260 -453 -178 12 -296 170
-264 351 29 160 207 262 371 213z m1209 -16 c56 -28 112 -86 135 -139 20 -47
22 -56 24 -116 4 -161 -129 -295 -291 -295 -79 0 -140 27 -201 89 -40 40 -60
70 -71 107 -40 126 4 259 108 332 83 58 207 67 296 22z m-628 -565 c46 -13 98
-49 138 -96 156 -182 18 -475 -223 -471 -112 2 -207 60 -258 155 -36 69 -38
188 -5 258 35 73 110 135 193 159 31 9 114 6 155 -5z m1801 -539 c288 -288
524 -526 524 -528 0 -3 -237 -243 -526 -533 l-526 -528 -529 529 -529 529 527
527 c291 291 530 528 532 528 1 0 239 -236 527 -524z"/>
</g>
</svg>
